# xmcd
#
# Track frame offsets:
#	180
#	42690
#	82357
#	103504
#	144634
#	184832
#	228546
#	271960
#
# Disc length: 4094 seconds
#
# Revision: 2
# Processed by: cddbd v1.4b41PL3 Copyright (c) Steve Scherf et al.
# Submitted via: EZCDDA 4.3.2
#
DISCID=770ffc08
DTITLE=Tim Zannes Quartett - You/Me
DYEAR=1900
DGENRE=
TTITLE0=Tenor madness
TTITLE1=You've changed
TTITLE2=Hello young lovers
TTITLE3=You don't know what love is
TTITLE4=But not for me
TTITLE5=Everything happens to me
TTITLE6=Blue 7
TTITLE7=Beatrice
EXTD=
EXTT0=
EXTT1=
EXTT2=
EXTT3=
EXTT4=
EXTT5=
EXTT6=
EXTT7=
PLAYORDER=
